# xmcd
#
# Track frame offsets:
#	150
#	14768
#	33011
#	46500
#	56655
#	69158
#	88269
#	103111
#	121248
#	133558
#	147338
#	163276
#	179005
#	195295
#	209168
#	218352
#	231736
#	248758
#	262728
#	275482
#	287764
#	300869
#
# Disc length: 4270 seconds
#
# Revision: 1
# Processed by: cddbd v1.5.2PL0 Copyright (c) Steve Scherf et al.
# Submitted via: audiograbber 1.83.01
#
DISCID=3f10ac16
DTITLE=Diamond Back of Texas - Diamond Back of Texas 016
DYEAR=2007
DGENRE=Country
TTITLE0=Laughing Ladies, Crying Babies  - Tom Hunnicutt
TTITLE1=I´m Just Getting Over, Over You  - Ray Sanders
TTITLE2=A Fool Such As I - Marilyn Mcconnell
TTITLE3=No I Won´t Come In While He´s There  - Bruce Greaves
TTITLE4=Out Of Love Expertience  - Ray Sanders
TTITLE5=My Life  - Glenn Erickson
TTITLE6=When We Had Love - Amme Harrison
TTITLE7=Keepers Of The World  - Mak Kaylor
TTITLE8=Lifestyle Of The Broke And Poor  - Phillip Clarkson
TTITLE9=Whoo´ll Be Around To Turn Off The Moon - John Waddell Jr
TTITLE10=Discovery School  - Mitch Snow
TTITLE11=How Loud Do I Have To Cry - Suzie Merwine
TTITLE12=Don´t Burn Easy  - Paula Mattol
TTITLE13=My Little Lone Star Girl  - Stan Lowhon
TTITLE14=Little Bad Weather  - Terry Robichaud Smith
TTITLE15=Good-better-bes - Phillip Clarkson
TTITLE16=You´re Raining Down On Me  - The Western Cowboys
TTITLE17=I Want Your Body  - Lance Miller
TTITLE18=The First Time - Mark Terry
TTITLE19=Sweet Baby  - Steve Patrick
TTITLE20=Ole Tige  - B. Jeff and Patricia Stone
TTITLE21=The Coldest Day In Juli  - B. Jeff Stone
EXTD=
EXTT0=
EXTT1=
EXTT2=
EXTT3=
EXTT4=
EXTT5=
EXTT6=
EXTT7=
EXTT8=
EXTT9=
EXTT10=
EXTT11=
EXTT12=
EXTT13=
EXTT14=
EXTT15=
EXTT16=
EXTT17=
EXTT18=
EXTT19=
EXTT20=
EXTT21=
PLAYORDER=
